<svg version="1" xmlns="http://www.w3.org/2000/svg" width="266.667" height="266.667" viewBox="0 0 200.000000 200.000000"><path d="M88.7 1.1C47.9 5.4 14 35.1 3.3 75.9 1.2 84 .8 87.7.8 100c0 17.7 2.6 29.1 10.1 44.5 20.9 42.5 70 64.2 116.2 51.4 26.8-7.4 50.1-27 62.4-52.4 18.6-38.4 10.9-84-19.2-113.8-9.3-9.1-16.2-14.1-26.8-19.2C132.6 5.2 122.6 2.4 110 1 99.5-.1 99.7-.1 88.7 1.1zM98 73.3l17.5 21.8 11.7-.4c14-.6 19.9-2.8 22.6-8.3.8-1.9 2.2-3.4 2.9-3.4 1 0 1.3 3.8 1.3 18.1 0 10.8-.4 17.9-.9 17.7-.6-.2-2-1.9-3.3-3.8-3.5-5.2-10.1-8.2-17.8-7.8l-6.2.3 6.6 8.1 6.7 8.2-.3 13.3-.3 13.4-3.2.3c-3.8.4-2.7 1.5-22.9-23.8l-15.9-20.1-17 .3c-19.2.3-21 .9-24.6 8-3.6 7.1-4.4 4.6-4.7-14.5C50 84.3 50.1 83 51.7 83c1 0 2.5 1.4 3.3 3.2 3 6.4 9 8.6 23.8 8.7 3.9.1 7.2-.2 7.2-.5s-6.3-8.4-14.1-18C57.4 58.5 52.6 54 47.8 54c-1.8 0-2.8-.5-2.8-1.5 0-1.3 2.4-1.5 17.7-1.3l17.7.3L98 73.3zm62-20.9c0 .8-1.5 1.6-3.6 1.9-8.5 1.4-14.6 10.5-16.6 24.7-.8 5.5-1.5 8-2.5 8-.8 0-1.3-1.1-1.3-2.8 0-4.2-2.7-15.8-4.6-19.8-2.4-5.1-6.9-9.2-10.9-10-2-.3-3.5-1.2-3.5-2 0-1.2 3.8-1.4 21.5-1.4 17.5 0 21.5.3 21.5 1.4zm-89.2 69.8c2 14.3 8.8 24.8 16 24.8 1.5 0 2.2.6 2.2 2 0 2-.5 2-21.2 1.8-19.3-.3-21.3-.5-21.6-2.1-.3-1.3.3-1.7 2.3-1.7 9 0 16.3-10.9 18.1-27 1-8.7 2.8-7.7 4.2 2.2z"/></svg>